<svg xmlns="http://www.w3.org/2000/svg" viewBox="0 0 512 512" fill="none">
  <defs>
    <linearGradient id="g" x1="0" y1="0" x2="1" y2="1">
      <stop offset="0%" stop-color="#7C3AED"/>
      <stop offset="100%" stop-color="#4338CA"/>
    </linearGradient>
    <linearGradient id="g2" x1="0" y1="0" x2="1" y2="1">
      <stop offset="0%" stop-color="#6D28D9"/>
      <stop offset="100%" stop-color="#4338CA"/>
    </linearGradient>
  </defs>

  <!-- Speed lines (left side) -->
  <rect x="32" y="148" width="120" height="20" rx="10" fill="url(#g)" opacity="0.9"/>
  <rect x="56" y="196" width="96" height="20" rx="10" fill="url(#g)" opacity="0.75"/>
  <rect x="32" y="244" width="130" height="20" rx="10" fill="url(#g)" opacity="0.9"/>
  <rect x="56" y="292" width="80" height="20" rx="10" fill="url(#g)" opacity="0.65"/>

  <!-- Back document (slightly left and up) -->
  <path d="M160 72h150l90 90v240c0 14-11.3 25-25 25H160c-13.8 0-25-11.2-25-25V97c0-13.8 11.2-25 25-25z" fill="url(#g)" opacity="0.55"/>
  <!-- Back document text lines -->
  <rect x="172" y="200" width="150" height="14" rx="7" fill="white" opacity="0.7"/>
  <rect x="172" y="232" width="120" height="14" rx="7" fill="white" opacity="0.55"/>
  <rect x="172" y="264" width="135" height="14" rx="7" fill="white" opacity="0.55"/>

  <!-- Front document -->
  <path d="M210 120h160l100 100v224c0 14-11.3 25-25 25H210c-13.8 0-25-11.2-25-25V145c0-13.8 11.2-25 25-25z" fill="url(#g2)"/>
  <!-- Folded corner -->
  <path d="M370 120v75c0 13.8 11.2 25 25 25h75L370 120z" fill="#5B21B6" opacity="0.7"/>

  <!-- Front document text lines -->
  <rect x="224" y="268" width="170" height="14" rx="7" fill="white" opacity="0.85"/>
  <rect x="224" y="300" width="130" height="14" rx="7" fill="white" opacity="0.65"/>

  <!-- Checkmark on front document -->
  <path d="M268 370l28 28 52-52" stroke="white" stroke-width="14" stroke-linecap="round" stroke-linejoin="round" fill="none" opacity="0.95"/>
</svg>
