<svg xmlns="http://www.w3.org/2000/svg" viewBox="0 0 512 512" fill="none">
  <defs>
    <linearGradient id="g" x1="0" y1="0" x2="1" y2="1">
      <stop offset="0%" stop-color="#7C3AED"/>
      <stop offset="100%" stop-color="#4F46E5"/>
    </linearGradient>
  </defs>
  <!-- Document body -->
  <path d="M128 48h176l112 112v288c0 17.7-14.3 32-32 32H128c-17.7 0-32-14.3-32-32V80c0-17.7 14.3-32 32-32z" fill="url(#g)"/>
  <!-- Folded corner -->
  <path d="M304 48v80c0 17.7 14.3 32 32 32h80L304 48z" fill="#6D28D9" opacity="0.6"/>
  <!-- Text lines -->
  <rect x="144" y="210" width="224" height="16" rx="8" fill="white" opacity="0.9"/>
  <rect x="144" y="250" width="180" height="16" rx="8" fill="white" opacity="0.7"/>
  <rect x="144" y="290" width="200" height="16" rx="8" fill="white" opacity="0.7"/>
  <!-- Checkmark circle -->
  <circle cx="350" cy="400" r="64" fill="#10B981"/>
  <path d="M322 400l20 20 36-36" stroke="white" stroke-width="10" stroke-linecap="round" stroke-linejoin="round" fill="none"/>
</svg>
